<svg xmlns="http://www.w3.org/2000/svg" width="36.287" height="36.151" viewBox="0 0 36.287 36.151">
  <path id="noun-graph-1328626" d="M88.781,16.347a5.243,5.243,0,1,0-3.519-1.4l-1.993,2.894a5.128,5.128,0,0,0-6.361.8l-1.734-1.515a5.184,5.184,0,0,0-7.79-6.775l-4.6-4V.75A.743.743,0,1,0,61.3.75V30.459H59.071a.743.743,0,1,0,0,1.486H61.3v2.971a.743.743,0,1,0,1.485,0V31.945H93.237a.743.743,0,0,0,0-1.486H62.784V8.323l3.687,3.21a5.141,5.141,0,0,0-.716,2.587,5.205,5.205,0,0,0,5.2,5.2A5.147,5.147,0,0,0,74.137,18.2l1.9,1.664a5.131,5.131,0,0,0-.629,2.425,5.2,5.2,0,1,0,9.014-3.5l2.062-2.994a5.137,5.137,0,0,0,2.294.557ZM70.955,17.833a3.714,3.714,0,1,1,3.714-3.714A3.714,3.714,0,0,1,70.955,17.833ZM80.61,26a3.714,3.714,0,1,1,3.714-3.714A3.714,3.714,0,0,1,80.61,26Zm4.456-14.854a3.714,3.714,0,1,1,3.714,3.714,3.714,3.714,0,0,1-3.714-3.714Z" transform="translate(-58.078 0.243)" fill="#058cca" stroke="#058cca" stroke-width="0.6"/>
</svg>
