<svg xmlns="http://www.w3.org/2000/svg" width="241.414" height="46.714" viewBox="0 0 241.414 46.714">
  <g id="Group_3037" data-name="Group 3037" transform="translate(-136 -225)">
    <g id="full-logo" transform="translate(136 225)">
      <circle id="Ellipse_1163" data-name="Ellipse 1163" cx="13.331" cy="13.331" r="13.331" transform="translate(9.41 9.858)" fill="#fff"/>
      <path id="Path_12248" data-name="Path 12248" d="M64.856,7.389C59.142,7.389,50.4,4.7,50.4,4.7a35.524,35.524,0,0,0-1.9,11.651c0,6.722,5.6,24.421,16.916,28.9,0,0,16.132-10.194,16.132-28.006C81.547,6.6,79.979,4.7,79.979,4.7s-9.41,2.689-15.123,2.689Z" transform="translate(5.832 -1.227)" fill="#fff"/>
      <path id="Path_12249" data-name="Path 12249" d="M92.8,21.54V2.272h7.282c3.473-.224,6.946,1.232,6.946,5.041a4.54,4.54,0,0,1-3.361,4.257,4.983,4.983,0,0,1,4.257,5.041c0,3.809-4.817,5.265-7.73,5.041H92.8ZM100.194,10c1.792,0,2.689-.672,2.689-2.241s-1.008-2.241-2.689-2.241H96.945v4.593h3.249V10Zm0,8.29c1.9,0,3.249-.336,3.249-2.577s-1.344-2.577-3.249-2.577H96.945v5.153Zm14.339-16.02V21.54H110.5V2.272ZM126.744,19.86a4.709,4.709,0,0,1-4.145,2.016c-1.344,0-3.921-1.008-4.369-2.913a8.045,8.045,0,0,1-.224-2.128V8.1h4.033v8.066c0,1.456.448,3.137,2.353,3.137,1.232,0,2.353-1.12,2.353-3.137V8.1h4.033V19.076c0,.784.112,1.568.112,2.353h-4.033l-.112-1.568Zm11.09-3.921c0,1.792.224,3.361,2.353,3.361a2.245,2.245,0,0,0,2.465-1.792h3.585c-.336,3.361-2.913,4.369-6.049,4.369-4.593,0-6.5-2.577-6.5-7.058,0-4.033,2.353-7.17,6.5-7.17,2.465,0,4.593.9,5.713,3.249a9.3,9.3,0,0,1,.672,2.353,18.987,18.987,0,0,1,.112,2.577h-8.85Zm4.705-2.689c0-1.456-.448-2.8-2.353-2.8-1.792,0-2.24,1.344-2.353,2.8h4.705Zm17.7-4.817a3.466,3.466,0,0,0-3.7-3.7c-2.913,0-3.7,4.369-3.7,7.058s.784,7.058,3.7,7.058a3.466,3.466,0,0,0,3.7-3.7h4.369c-.224,4.817-3.7,6.609-8.066,6.609-5.6,0-8.066-4.369-8.066-10.082,0-5.6,2.465-10.082,8.066-10.082,4.481,0,7.954,1.792,8.066,6.609h-4.369v.224ZM170.433,8.1l.112,2.465c.9-2.128,2.577-2.689,4.593-2.577V11.57h-1.792a2.5,2.5,0,0,0-1.9,1.008,4.307,4.307,0,0,0-.56,2.353V21.54h-4.033V10.786c0-.56-.112-1.68-.112-2.689Zm13.443,13.891c-4.369,0-7.058-2.913-7.058-7.17s2.577-7.17,7.058-7.17c4.369,0,7.058,2.913,7.058,7.17S188.245,21.989,183.876,21.989Zm0-2.689c2.465,0,2.913-2.353,2.913-4.481s-.448-4.481-2.913-4.481-2.913,2.353-2.913,4.481C181.076,16.947,181.412,19.3,183.876,19.3Zm16.692-7.618c0-.9-.9-1.344-1.792-1.344-1.12,0-1.568.336-1.568,1.232,0,2.128,7.73.9,7.73,5.937,0,2.913-3.585,4.369-6.049,4.369-3.137,0-5.825-1.232-5.937-4.257h3.7a2.037,2.037,0,0,0,2.24,1.68c1.12,0,1.9-.448,1.9-1.456,0-1.12-1.9-1.568-2.689-1.68-2.577-.56-4.929-1.232-4.929-4.257,0-2.8,3.361-4.033,5.713-4.033,2.8,0,5.265,1.008,5.377,4.033h-3.7v-.224Zm13.331,0c0-.9-.9-1.344-1.792-1.344-1.12,0-1.568.336-1.568,1.232,0,2.128,7.73.9,7.73,5.937,0,2.913-3.585,4.369-6.049,4.369-3.137,0-5.825-1.232-5.937-4.257h3.7a2.037,2.037,0,0,0,2.24,1.68c1.12,0,1.9-.448,1.9-1.456,0-1.12-1.9-1.568-2.689-1.68-2.577-.56-4.929-1.232-4.929-4.257,0-2.8,3.361-4.033,5.713-4.033,2.8,0,5.265,1.008,5.377,4.033h-3.7v-.224ZM92.8,47.754V28.486h7.282c3.473-.224,6.946,1.232,6.946,5.041a4.54,4.54,0,0,1-3.361,4.257,4.983,4.983,0,0,1,4.257,5.041c0,3.809-4.817,5.265-7.73,5.041H92.8v-.112Zm7.394-11.539c1.792,0,2.689-.672,2.689-2.241s-1.008-2.24-2.689-2.24H96.945v4.593Zm0,8.29c1.9,0,3.249-.336,3.249-2.577s-1.344-2.577-3.249-2.577H96.945v5.153Zm14.339-16.02V47.754H110.5V28.486Zm12.211,17.588A4.709,4.709,0,0,1,122.6,48.09c-1.344,0-3.921-1.008-4.369-3.025a8.045,8.045,0,0,1-.224-2.128V34.2h4.033v8.178c0,1.456.448,3.137,2.353,3.137,1.232,0,2.353-1.12,2.353-3.137V34.311h4.033V45.29c0,.784.112,1.568.112,2.353h-4.033l-.112-1.568Zm11.09-3.921c0,1.792.224,3.361,2.353,3.361a2.245,2.245,0,0,0,2.465-1.792h3.585c-.336,3.361-2.913,4.369-6.049,4.369-4.593,0-6.5-2.577-6.5-7.058,0-4.033,2.353-7.17,6.5-7.17,2.465,0,4.593.9,5.713,3.249a9.3,9.3,0,0,1,.672,2.353,18.987,18.987,0,0,1,.112,2.577l-8.85.112Zm4.705-2.689c0-1.456-.448-2.8-2.353-2.8-1.792,0-2.24,1.344-2.353,2.8h4.705Zm17.14-5.489c-.112-1.9-1.232-2.913-3.249-2.913-1.568,0-3.025.784-3.025,2.465,0,2.128,1.9,2.353,3.585,2.689,2.913.784,7.282,1.568,7.282,5.489,0,4.817-4.145,6.5-8.29,6.5-4.369,0-7.506-1.68-7.394-6.609h4.257a3.1,3.1,0,0,0,3.249,3.585c1.68,0,3.809-.56,3.809-2.577,0-2.241-2.8-2.465-4.369-2.913-2.689-.672-6.385-1.9-6.385-5.377,0-4.369,4.033-6.385,8.066-6.385,3.7,0,6.609,2.016,6.609,5.937l-4.145.112Zm7.394,13.779V28.486h4.033v7.506a4.577,4.577,0,0,1,4.145-2.016c1.344,0,3.921,1.008,4.369,2.913a8.046,8.046,0,0,1,.224,2.128v8.738h-3.921V39.689c0-1.456-.448-3.025-2.353-3.025-1.232,0-2.353,1.12-2.353,3.025v8.066h-4.145Zm20.5-19.268v3.473h-4.257V28.486Zm-.224,5.825V47.754h-4.033V34.311Zm7.058,7.842c0,1.792.224,3.361,2.353,3.361a2.245,2.245,0,0,0,2.465-1.792h3.585c-.336,3.361-2.913,4.369-6.049,4.369-4.593,0-6.5-2.577-6.5-7.058,0-4.033,2.353-7.17,6.5-7.17,2.465,0,4.593.9,5.713,3.249a9.3,9.3,0,0,1,.672,2.353,18.987,18.987,0,0,1,.112,2.577l-8.85.112ZM199,39.464c0-1.456-.448-2.8-2.353-2.8-1.792,0-2.241,1.344-2.353,2.8H199Zm10.642-10.978V47.754h-4.033V28.486Zm12.771,0h4.033V45.178c0,.9.112,1.792.112,2.689h-4.033c0-.672-.112-1.232-.112-1.9a4.53,4.53,0,0,1-4.145,2.353c-3.921,0-5.825-3.7-5.825-7.17,0-3.585,2.128-7.17,6.273-7.17a4.621,4.621,0,0,1,3.585,1.9l.112-7.394ZM219.5,45.514c2.128,0,2.913-2.577,2.913-4.481,0-1.792-.672-4.481-2.913-4.481-2.577,0-2.913,2.353-2.913,4.481C216.588,43.049,216.924,45.514,219.5,45.514Zm.672-23.973a1.232,1.232,0,1,1,1.232-1.232,1.175,1.175,0,0,1-1.232,1.232m0-2.8a1.456,1.456,0,1,0,1.456,1.456,1.483,1.483,0,0,0-1.456-1.456" transform="translate(11.159 -1.6)" fill="#231f20"/>
      <path id="Path_12250" data-name="Path 12250" d="M206.56,18.284h-.336v-.56h.448c.224,0,.448,0,.448.224,0,.336-.336.336-.56.336m.784-.336c0-.336-.112-.448-.56-.448H206v1.68h.224V18.4h.336l.56.784h.224L206.9,18.4a.41.41,0,0,0,.448-.448m7.842,27.782a1.232,1.232,0,1,1,1.232-1.232,1.243,1.243,0,0,1-1.232,1.232m0-2.8a1.456,1.456,0,1,0,1.456,1.456,1.483,1.483,0,0,0-1.456-1.456" transform="translate(24.772 0.312)" fill="#231f20"/>
      <path id="Path_12251" data-name="Path 12251" d="M214.148,41.584h-.336v-.56h.448c.224,0,.448,0,.448.224,0,.336-.224.336-.56.336m.9-.336c0-.336-.112-.448-.56-.448H213.7v1.68h.224V41.7h.336l.448.784h.224l-.448-.784c.336,0,.56-.112.56-.448" transform="translate(25.698 3.114)" fill="#231f20"/>
      <g id="Group_3010" data-name="Group 3010" transform="translate(0 0.448)">
        <path id="Path_12252" data-name="Path 12252" d="M38.677,38.4a2.577,2.577,0,0,0,0,5.153,2.606,2.606,0,0,0,2.577-2.577A2.535,2.535,0,0,0,38.677,38.4Zm0,4.705a2.128,2.128,0,1,1,2.128-2.128A2,2,0,0,1,38.677,43.105Z" transform="translate(4.341 2.377)" fill="#008bcc"/>
        <path id="Path_12253" data-name="Path 12253" d="M43.075,42.505c0-.56-.224-.784-1.008-.784H40.835v2.913h.336V43.4h.672l.784,1.232h.448l-.9-1.232c.56-.112.9-.336.9-.9Zm-1.344.448h-.56v-.9h.784c.336,0,.672,0,.672.448.112.56-.56.448-.9.448ZM21.566,26.037c-.112,0-.112,0-.224.112l-4.257,6.5a11.1,11.1,0,0,0,8.738,0l-4.257-6.5C21.678,26.037,21.566,26.037,21.566,26.037ZM17.422,20.66l-6.385-.56a9.549,9.549,0,0,0-.336,2.577,11.123,11.123,0,0,0,2.577,7.058l4.481-8.514C17.982,21,17.87,20.772,17.422,20.66Z" transform="translate(1.287 0.177)" fill="#008bcc"/>
        <path id="Path_12254" data-name="Path 12254" d="M32.935,14.659V2H12.659V14.659H0V34.935H12.659V47.594H32.935V34.935H45.594V14.659ZM22.853,12.306a12.24,12.24,0,0,1,11.315,7.282H25.206a1.8,1.8,0,0,1-1.9-1.344,2.336,2.336,0,0,1,.672-1.68,1.583,1.583,0,1,0-2.465,0,2.336,2.336,0,0,1,.672,1.68c0,.56-.56,1.344-1.9,1.344H11.315a13,13,0,0,1,11.539-7.282ZM10.306,24.853a13.747,13.747,0,0,1,.784-4.369l8.4.784a1.821,1.821,0,0,1,1.344,2.689L15.123,34.823A12.813,12.813,0,0,1,10.306,24.853Zm19.38,10.53A12.316,12.316,0,0,1,22.741,37.4,13.262,13.262,0,0,1,15.8,35.383l6.161-9.074a.9.9,0,0,1,1.568,0l6.161,9.074Zm.9-.672L24.87,23.957a1.821,1.821,0,0,1,1.344-2.689l8.4-.784a11.607,11.607,0,0,1,.784,4.369,12.422,12.422,0,0,1-4.817,9.858Z" transform="translate(0 -2)" fill="#008bcc"/>
        <path id="Path_12255" data-name="Path 12255" d="M29.456,16.461A10.64,10.64,0,0,0,24.3,13.1a2.875,2.875,0,0,1-.448,3.137.155.155,0,0,0,0,.224ZM25.423,21.5c-.448,0-.448.224-.336.448l4.481,8.514a11.123,11.123,0,0,0,2.577-7.058,9.549,9.549,0,0,0-.336-2.577l-6.385.672Zm-7.17-8.29A10.64,10.64,0,0,0,13.1,16.573h5.6c.112,0,.112-.112,0-.224C18.141,15.565,17.581,14.22,18.253,13.212Z" transform="translate(1.575 -0.665)" fill="#008bcc"/>
      </g>
      <g id="Group_3011" data-name="Group 3011" transform="translate(52.484 0.448)">
        <path id="Path_12256" data-name="Path 12256" d="M80.738,2A33.679,33.679,0,0,1,65.166,5.809,33.679,33.679,0,0,1,49.595,2c-3.249,6.385-3.7,16.692-.9,25.318,2.689,8.29,7.954,15.908,16.468,20.613,8.626-4.705,13.779-12.323,16.468-20.613C84.546,18.692,83.986,8.385,80.738,2ZM78.5,26.309c-2.465,7.058-6.161,13.331-13.219,17.7-7.058-4.369-10.866-10.642-13.219-17.7-2.128-6.273-2.689-13.667-.336-19.38a42.572,42.572,0,0,0,7.506,1.9,30.283,30.283,0,0,0,6.049.448,43.254,43.254,0,0,0,6.049-.448,40.3,40.3,0,0,0,7.506-1.9C81.074,12.642,80.626,20.036,78.5,26.309Z" transform="translate(-46.85 -2)" fill="#008bcc"/>
        <path id="Path_12257" data-name="Path 12257" d="M70.793,9.644a56.969,56.969,0,0,1-6.161.448,59.1,59.1,0,0,1-6.161-.448c-2.016-.336-4.033-.784-6.161-1.344-1.456,4.257-1.232,9.634,0,14.339,2.128,8.962,7.618,15.8,12.323,18.82,4.817-3.025,10.194-9.858,12.323-18.82,1.12-4.817,1.456-10.082,0-14.339a40.431,40.431,0,0,1-6.161,1.344Zm-7.282,27.67c-.112.448.112.672.112.9-.112.336-.336.224-.448,0a1.672,1.672,0,0,1-.336-1.12,1.492,1.492,0,0,1,.56-1.456,1.934,1.934,0,0,1,.448-.336l.112,1.456C63.735,36.754,63.511,36.866,63.511,37.314Zm1.9,1.456c0,.224-.112.448-.56.448-.336,0-.56-.112-.56-.56-.112-1.792-.112-5.041-.112-5.041a2.914,2.914,0,0,1,.784.336c.112,0,.336.224.56.448,0,.112.112.112.112.224C65.527,35.858,65.415,38.211,65.415,38.771Zm1.456-3.361a2.8,2.8,0,0,1-.9.448V34.514a.491.491,0,0,0,.112-.336,5.466,5.466,0,0,0-1.456-1.12,14.721,14.721,0,0,0-1.68-.56,1.862,1.862,0,0,1-1.12-2.577c.112-.448.672-.672.9-.784a4.406,4.406,0,0,1,.672-.224l.112,1.568s-.112,0-.224.224a.331.331,0,0,0,.224.448,26.919,26.919,0,0,1,2.577,1.232c1.008.56,1.344,1.008,1.344,1.792a1.215,1.215,0,0,1-.56,1.232Zm-2.8-7.282c.784.112,1.008.112,1.68.224l-.112,3.137-.672-.336-.672-.336-.224-2.689Zm4.481.672a2,2,0,0,1-1.008,1.344,2.7,2.7,0,0,1-1.232.336v-1.9a.347.347,0,0,0,.224-.112.412.412,0,0,0,.112-.336c0-.112-.112-.224-.224-.336a1.218,1.218,0,0,0-.56-.112l-2.689-.336c-1.568-.224-2.8-1.232-2.689-2.8.112-1.008,1.12-1.344,1.9-1.68l.56,1.12a3.611,3.611,0,0,0,.224.672s-.336.112-.336.336.336.336.448.336A14.693,14.693,0,0,1,66.76,26a2.857,2.857,0,0,1,1.344.9A2.633,2.633,0,0,1,68.552,28.8ZM63.4,21.519s.336,0,1.344.112a3.7,3.7,0,0,1,1.232.224l-.112,3.361c-.784-.112-1.232-.224-1.9-.336A7.739,7.739,0,0,0,62.951,22.3c-.112-.224,0-.336,0-.336a1.893,1.893,0,0,1,.56-.224l-.112-.224Zm3.025,3.361s.112-1.568.112-2.353a.564.564,0,0,0,.336-.9.765.765,0,0,0-.56-.336,20.279,20.279,0,0,0-2.577-.336c-.784-.112-1.456-.224-2.128-.336a4.976,4.976,0,0,1-3.473-2.465A3.486,3.486,0,0,1,59.7,13.565a4.155,4.155,0,0,1,3.809,0c.448.112.672.56.9.9.112.112.336.224.448.448.112.112-.112.112-.112.112a3.2,3.2,0,0,1-1.456,0H61.943a12.22,12.22,0,0,0,1.232.672c.224.112.448.112.672.224.112,0,.336.112.336.224s-.224.112-.448.224a2.291,2.291,0,0,1-1.232,0c-.672-.112-1.008-.56-1.456-.336-.336.224-.336.56-.224,1.008.112.672.784.9,1.344,1.12,1.9.672,4.033.224,5.825,1.232a3.135,3.135,0,0,1,1.68,1.9c.56,3.137-3.249,3.585-3.249,3.585Zm3.361-10.418c-.112.336-.224.336-.448.56-.448.448-1.12.9-1.792,1.456a3.56,3.56,0,0,0-1.12,1.12,1.611,1.611,0,0,0-.224.336c-1.12-.224-2.128-.224-3.025-.448v-.9s1.008,0,1.12-.672a.553.553,0,0,0-.112-.336,1.183,1.183,0,0,0-.56-.224,9.679,9.679,0,0,1,2.353.784,2.541,2.541,0,0,0-.112-.448,1.2,1.2,0,0,0-.56-.336c-.448-.112-1.68-.224-1.68-.224h1.008c.224,0,.56-.112.56-.224.112-.112,0-.336-.224-.56l-.336-.336c-.112-.224-.336-.448-.448-.672a3.181,3.181,0,0,0-1.12-.672s-.112-.56.112-.784a.528.528,0,0,1,.672-.112,9.357,9.357,0,0,0,2.128.9c.224.112.224.112.224.448.112.56-.112,1.344,0,1.68,0,.112.224.112.224.112.784-.448,1.232-1.12,2.016-1.456.56-.224,1.568.224,1.344,1.008Zm10.642,27.67A2.465,2.465,0,1,0,82.891,44.6,2.486,2.486,0,0,0,80.427,42.132Zm0,4.593A2.128,2.128,0,1,1,82.555,44.6,2.06,2.06,0,0,1,80.427,46.725Z" transform="translate(-46.315 -1.242)" fill="#008bcc"/>
        <path id="Path_12258" data-name="Path 12258" d="M80.64,43.371c0-.56-.224-.784-1.008-.784H78.4V45.5h.336V44.267h.56L80.08,45.5h.448l-.9-1.232c.56-.112,1.008-.336,1.008-.9Zm-1.344.56h-.56v-.9h.784c.336,0,.672,0,.672.448s-.56.448-.9.448ZM63.5,41.018ZM61.148,13.124c.224.224.224.448.56.448a.582.582,0,0,0,.448-.224h.224c-.336-.336-1.12-.336-1.68-.448C60.924,13.124,61.036,13.012,61.148,13.124Z" transform="translate(-45.185 -0.689)" fill="#008bcc"/>
      </g>
    </g>
  </g>
</svg>
