<svg xmlns="http://www.w3.org/2000/svg" width="34.242" height="39.538" viewBox="0 0 34.242 39.538">
  <g id="Group_522" data-name="Group 522" transform="translate(-26.989 -289.417)">
    <path id="Path_86" data-name="Path 86" d="M134.61,221.613v6.311a1.644,1.644,0,0,0,1.643,1.643h32.1V205.745a1.645,1.645,0,0,0-1.643-1.643H160.4a1.645,1.645,0,0,0-1.643,1.643V219.97h-22.5a1.645,1.645,0,0,0-1.643,1.643Zm25.464-15.868a.326.326,0,0,1,.325-.325h6.311a.325.325,0,0,1,.325.325v22.5h-6.96v-22.5Zm-1.318,22.5h-22.5a.325.325,0,0,1-.325-.325v-6.311a.325.325,0,0,1,.325-.325h1.375V223.6h1.318v-2.317h1.7v4.344h1.318v-4.344h1.7V223.6h1.318v-2.317h1.7V223.6H148v-2.317h1.7v4.344h1.318v-4.344h1.7V223.6h1.318v-2.317h1.7V223.6h1.318v-2.317h1.7Z" transform="translate(-107.371 99.139)" fill="#058cca" stroke="#058cca" stroke-width="0.5"/>
    <path id="Path_87" data-name="Path 87" d="M469.586,243.447a2.938,2.938,0,1,0-2.075-.86,2.935,2.935,0,0,0,2.075.86Zm0-4.553h0a1.619,1.619,0,1,1-1.143.474,1.618,1.618,0,0,1,1.143-.474Z" transform="translate(-413.403 68.287)" fill="#058cca" stroke="#058cca" stroke-width="0.5"/>
    <path id="Path_88" data-name="Path 88" d="M218.216,38.61l2.557-2.69a1.8,1.8,0,0,0-.064-2.542L218.523,31.3a1.8,1.8,0,0,0-2.543.064L214.333,33.1h0L199.441,48.763l-.093.1-2.919,7.869,7.711-3.313L218.217,38.61Zm-1.28-6.337a.476.476,0,0,1,.336-.149.483.483,0,0,1,.343.132l2.185,2.077a.481.481,0,0,1,.017.679l-1.648,1.734-1.441-1.369-1.441-1.37ZM200.2,50.356l2.4,2.286-3.87,1.663Zm3.551,1.557-2.881-2.739,13.511-14.211L217.26,37.7Z" transform="translate(-164.347 258.861)" fill="#058cca" stroke="#058cca" stroke-width="0.5"/>
  </g>
</svg>
