<svg xmlns="http://www.w3.org/2000/svg" width="71.666" height="180.438" viewBox="0 0 71.666 180.438">
  <path id="Subtraction_1" data-name="Subtraction 1" d="M17.122,180.438s-1.758-25.983,11.413-34.283c8.588-5.412,17.967-10.024,25.909-16.239,3.8-2.972,9.693-7.685,12.289-13.713.841-1.953,2.911-5,3.518-7.939.4-1.945.537-2.8.932-5.052a34.7,34.7,0,0,0,.483-4.9,42.093,42.093,0,0,0-.483-5.943c-.232-1.648-.6-3.584-.932-5.4-2.637-8.3-5.495-12.811-16.907-23.276a111.994,111.994,0,0,0-10.6-7.229C30.512,49.621,17.561,38.111,17.561,21.653V0L0,2.526V180.438Z" transform="translate(71.666 180.438) rotate(180)" fill="#fff"/>
</svg>
